<svg width="109" height="58" viewBox="0 0 109 58" fill="none" xmlns="http://www.w3.org/2000/svg">
<path d="M61.3334 24.875H75.3334C75.9522 24.875 76.5457 24.6555 76.9833 24.2648C77.4209 23.8741 77.6667 23.3442 77.6667 22.7917V20.7083H63.6667V22.7917C63.6667 23.3442 63.4209 23.8741 62.9833 24.2648C62.5457 24.6555 61.9522 24.875 61.3334 24.875ZM61.3334 24.875C60.7145 24.875 60.121 24.6555 59.6835 24.2648C59.2459 23.8741 59 23.3442 59 22.7917V8.20833C59 7.6558 58.7542 7.12589 58.3166 6.73519C57.879 6.34449 57.2855 6.125 56.6667 6.125C56.0479 6.125 55.4544 6.34449 55.0168 6.73519C54.5792 7.12589 54.3334 7.6558 54.3334 8.20833V11.3333H59" stroke="#2C7DA0" stroke-width="2" stroke-linecap="round" stroke-linejoin="round"/>
<path d="M74.1666 20.7083V8.20833C74.1666 7.6558 73.9208 7.12589 73.4832 6.73519C73.0456 6.34449 72.4521 6.125 71.8333 6.125H56.6666" stroke="#2C7DA0" stroke-width="2" stroke-linecap="round" stroke-linejoin="round"/>
<path d="M69.5 11.3333H63.6666" stroke="#2C7DA0" stroke-width="2" stroke-linecap="round" stroke-linejoin="round"/>
<path d="M69.5 15.5H63.6666" stroke="#2C7DA0" stroke-width="2" stroke-linecap="round" stroke-linejoin="round"/>
<path d="M10.8 8.824V10.192H6.312V25H4.824V10.192H0.36V8.824H10.8ZM15.6923 19.192H21.9563L21.5963 18.16L18.8603 10.072C18.6523 10.712 17.7163 13.416 16.0523 18.184L15.6923 19.192ZM23.9243 25L22.3883 20.512H15.2363L13.6763 25H12.0683L17.7803 8.824H19.9403L25.5323 25H23.9243ZM36.5895 9.4V11.056C36.2055 10.8 35.7015 10.584 35.0775 10.408C34.4535 10.232 33.8455 10.144 33.2535 10.144C32.1815 10.144 31.3255 10.4 30.6855 10.912C30.0455 11.408 29.7255 12.072 29.7255 12.904C29.7255 13.336 29.8055 13.72 29.9655 14.056C30.1415 14.392 30.4295 14.704 30.8295 14.992C31.2295 15.264 31.5735 15.48 31.8615 15.64C32.1655 15.784 32.6215 15.984 33.2295 16.24C33.7895 16.48 34.2135 16.672 34.5015 16.816C34.7895 16.944 35.1575 17.152 35.6055 17.44C36.0535 17.728 36.3895 18.016 36.6135 18.304C36.8535 18.576 37.0615 18.936 37.2375 19.384C37.4295 19.816 37.5255 20.296 37.5255 20.824C37.5255 22.232 37.0535 23.312 36.1095 24.064C35.1655 24.8 33.9575 25.168 32.4855 25.168C30.8215 25.168 29.4055 24.816 28.2375 24.112V22.456C28.7175 22.824 29.3335 23.128 30.0855 23.368C30.8535 23.608 31.6295 23.728 32.4135 23.728C33.5495 23.728 34.4295 23.48 35.0535 22.984C35.6935 22.488 36.0135 21.776 36.0135 20.848C36.0135 20.144 35.7735 19.576 35.2935 19.144C34.8135 18.696 34.1175 18.272 33.2055 17.872C33.0775 17.808 32.7975 17.688 32.3655 17.512C31.9335 17.32 31.6295 17.184 31.4535 17.104C31.2775 17.024 31.0055 16.888 30.6375 16.696C30.2695 16.504 29.9975 16.336 29.8215 16.192C29.6615 16.048 29.4535 15.856 29.1975 15.616C28.9415 15.376 28.7575 15.136 28.6455 14.896C28.5335 14.656 28.4295 14.376 28.3335 14.056C28.2375 13.72 28.1895 13.368 28.1895 13C28.1895 11.64 28.6775 10.584 29.6535 9.832C30.6295 9.064 31.8215 8.68 33.2295 8.68C34.5735 8.68 35.6935 8.92 36.5895 9.4ZM41.0138 25V8.824H42.5018V25H41.0138ZM44.8298 17.032L51.5498 25H49.5818L42.9338 17.032L49.3418 8.824H51.2137L44.8298 17.032Z" fill="black"/>
<path d="M0.8 39L1.728 28.216H4.432L5.936 32.12C6.192 32.7707 6.41067 33.368 6.592 33.912C6.77333 34.456 6.89067 34.84 6.944 35.064L7.024 35.384C7.19467 34.68 7.568 33.592 8.144 32.12L9.664 28.216H12.368L13.488 39H11.024L10.624 34.824L10.416 31.672C10.1387 32.472 9.75467 33.5227 9.264 34.824L7.744 38.888H6.288L4.784 34.824C4.53867 34.1627 4.33067 33.5707 4.16 33.048C3.98933 32.5253 3.87733 32.1627 3.824 31.96L3.744 31.672C3.744 32.4293 3.696 33.48 3.6 34.824L3.264 39H0.8ZM18.4733 34.808H21.0653L20.9533 34.424C20.6439 33.3787 20.3879 32.488 20.1853 31.752C19.9933 31.016 19.8759 30.5413 19.8333 30.328L19.7693 30.008C19.6839 30.5947 19.2893 32.0667 18.5853 34.424L18.4733 34.808ZM22.3133 39L21.6573 36.792H17.8813L17.2253 39H14.6493L18.2493 28.216H21.3533L24.9533 39H22.3133ZM26.3681 39V28.216H29.0721L31.5841 32.68C31.9361 33.3093 32.2401 33.9013 32.4961 34.456C32.7628 35 32.9335 35.384 33.0081 35.608L33.1361 35.96C33.0295 35.1707 32.9761 34.0773 32.9761 32.68V28.216H35.4401V39H32.7361L30.1601 34.536C29.8188 33.96 29.5148 33.3947 29.2481 32.84C28.9921 32.2747 28.8161 31.8587 28.7201 31.592L28.5921 31.192C28.7521 32.152 28.8321 33.2667 28.8321 34.536V39H26.3681ZM40.6764 34.808H43.2684L43.1564 34.424C42.847 33.3787 42.591 32.488 42.3884 31.752C42.1964 31.016 42.079 30.5413 42.0364 30.328L41.9724 30.008C41.887 30.5947 41.4924 32.0667 40.7884 34.424L40.6764 34.808ZM44.5164 39L43.8604 36.792H40.0844L39.4284 39H36.8524L40.4524 28.216H43.5564L47.1564 39H44.5164ZM57.8673 32.568V38.008C56.8433 38.7547 55.5526 39.128 53.9953 39.128C52.2673 39.128 50.8646 38.632 49.7873 37.64C48.7099 36.648 48.1713 35.2987 48.1713 33.592C48.1713 31.9067 48.7313 30.5573 49.8513 29.544C50.9819 28.5307 52.4113 28.024 54.1393 28.024C55.3553 28.024 56.4059 28.248 57.2913 28.696V31.16C56.2673 30.5733 55.2166 30.28 54.1393 30.28C53.1259 30.28 52.3206 30.584 51.7233 31.192C51.1259 31.7893 50.8273 32.5893 50.8273 33.592C50.8273 34.6053 51.1206 35.4107 51.7073 36.008C52.2939 36.6053 53.0939 36.904 54.1073 36.904C54.5659 36.904 55.0193 36.8347 55.4673 36.696V34.664H53.7233V32.568H57.8673ZM62.3481 37.032H66.5721V39H59.8681V28.216H66.5081V30.184H62.3481V32.632H66.0601V34.584H62.3481V37.032ZM71.0353 30.216V33.256H72.2033C73.2699 33.256 73.8033 32.7333 73.8033 31.688C73.8033 31.2293 73.6646 30.872 73.3873 30.616C73.1099 30.3493 72.7313 30.216 72.2513 30.216H71.0353ZM74.1233 39L71.7873 35.256H71.0353V39H68.5713V28.216H72.2993C73.5046 28.216 74.4699 28.536 75.1953 29.176C75.9313 29.816 76.2993 30.648 76.2993 31.672C76.2993 33.208 75.6433 34.2693 74.3313 34.856L77.0673 39H74.1233Z" fill="#2C7DA0"/>
</svg>
