<svg width="466" height="196" viewBox="0 0 466 196" fill="none" xmlns="http://www.w3.org/2000/svg">
<path d="M246 115.5H312C314.917 115.5 317.715 114.341 319.778 112.278C321.841 110.215 323 107.417 323 104.5V93.5H257V104.5C257 107.417 255.841 110.215 253.778 112.278C251.715 114.341 248.917 115.5 246 115.5ZM246 115.5C243.083 115.5 240.285 114.341 238.222 112.278C236.159 110.215 235 107.417 235 104.5V27.5C235 24.5826 233.841 21.7847 231.778 19.7218C229.715 17.6589 226.917 16.5 224 16.5C221.083 16.5 218.285 17.6589 216.222 19.7218C214.159 21.7847 213 24.5826 213 27.5V44H235" stroke="#2C7DA0" stroke-width="7" stroke-linecap="round" stroke-linejoin="round"/>
<path d="M306.5 93.5V27.5C306.5 24.5826 305.341 21.7847 303.278 19.7218C301.215 17.6589 298.417 16.5 295.5 16.5H224" stroke="#2C7DA0" stroke-width="7" stroke-linecap="round" stroke-linejoin="round"/>
<path d="M284.5 44H257" stroke="#2C7DA0" stroke-width="7" stroke-linecap="round" stroke-linejoin="round"/>
<path d="M284.5 66H257" stroke="#2C7DA0" stroke-width="7" stroke-linecap="round" stroke-linejoin="round"/>
<path d="M43.2 60.296V65.768H25.248V125H19.296V65.768H1.44V60.296H43.2ZM62.769 101.768H87.825L86.385 97.64L75.441 65.288C74.609 67.848 70.865 78.664 64.209 97.736L62.769 101.768ZM95.697 125L89.553 107.048H60.945L54.705 125H48.273L71.121 60.296H79.761L102.129 125H95.697ZM146.358 62.6V69.224C144.822 68.2 142.806 67.336 140.31 66.632C137.814 65.928 135.382 65.576 133.014 65.576C128.726 65.576 125.302 66.6 122.742 68.648C120.182 70.632 118.902 73.288 118.902 76.616C118.902 78.344 119.222 79.88 119.862 81.224C120.566 82.568 121.718 83.816 123.318 84.968C124.918 86.056 126.294 86.92 127.446 87.56C128.662 88.136 130.486 88.936 132.918 89.96C135.158 90.92 136.854 91.688 138.006 92.264C139.158 92.776 140.63 93.608 142.422 94.76C144.214 95.912 145.558 97.064 146.454 98.216C147.414 99.304 148.246 100.744 148.95 102.536C149.718 104.264 150.102 106.184 150.102 108.296C150.102 113.928 148.214 118.248 144.438 121.256C140.662 124.2 135.83 125.672 129.942 125.672C123.286 125.672 117.622 124.264 112.95 121.448V114.824C114.87 116.296 117.334 117.512 120.342 118.472C123.414 119.432 126.518 119.912 129.654 119.912C134.198 119.912 137.718 118.92 140.214 116.936C142.774 114.952 144.054 112.104 144.054 108.392C144.054 105.576 143.094 103.304 141.174 101.576C139.254 99.784 136.47 98.088 132.822 96.488C132.31 96.232 131.19 95.752 129.462 95.048C127.734 94.28 126.518 93.736 125.814 93.416C125.11 93.096 124.022 92.552 122.55 91.784C121.078 91.016 119.99 90.344 119.286 89.768C118.646 89.192 117.814 88.424 116.79 87.464C115.766 86.504 115.03 85.544 114.582 84.584C114.134 83.624 113.718 82.504 113.334 81.224C112.95 79.88 112.758 78.472 112.758 77C112.758 71.56 114.71 67.336 118.614 64.328C122.518 61.256 127.286 59.72 132.918 59.72C138.294 59.72 142.774 60.68 146.358 62.6ZM164.055 125V60.296H170.007V125H164.055ZM179.319 93.128L206.199 125H198.327L171.735 93.128L197.367 60.296H204.855L179.319 93.128Z" fill="black"/>
<path d="M4.8 195L10.368 130.296H26.592L35.616 153.72C37.152 157.624 38.464 161.208 39.552 164.472C40.64 167.736 41.344 170.04 41.664 171.384L42.144 173.304C43.168 169.08 45.408 162.552 48.864 153.72L57.984 130.296H74.208L80.928 195H66.144L63.744 169.944L62.496 151.032C60.832 155.832 58.528 162.136 55.584 169.944L46.464 194.328H37.728L28.704 169.944C27.232 165.976 25.984 162.424 24.96 159.288C23.936 156.152 23.264 153.976 22.944 152.76L22.464 151.032C22.464 155.576 22.176 161.88 21.6 169.944L19.584 195H4.8ZM110.84 169.848H126.392L125.72 167.544C123.864 161.272 122.328 155.928 121.112 151.512C119.96 147.096 119.256 144.248 119 142.968L118.616 141.048C118.104 144.568 115.736 153.4 111.512 167.544L110.84 169.848ZM133.88 195L129.944 181.752H107.288L103.352 195H87.8955L109.496 130.296H128.12L149.72 195H133.88ZM158.209 195V130.296H174.433L189.505 157.08C191.617 160.856 193.441 164.408 194.977 167.736C196.577 171 197.601 173.304 198.049 174.648L198.817 176.76C198.177 172.024 197.857 165.464 197.857 157.08V130.296H212.641V195H196.417L180.961 168.216C178.913 164.76 177.089 161.368 175.489 158.04C173.953 154.648 172.897 152.152 172.321 150.552L171.553 148.152C172.513 153.912 172.993 160.6 172.993 168.216V195H158.209ZM244.058 169.848H259.61L258.938 167.544C257.082 161.272 255.546 155.928 254.33 151.512C253.178 147.096 252.474 144.248 252.218 142.968L251.834 141.048C251.322 144.568 248.954 153.4 244.73 167.544L244.058 169.848ZM267.098 195L263.162 181.752H240.506L236.57 195H221.114L242.714 130.296H261.338L282.938 195H267.098ZM347.204 156.408V189.048C341.06 193.528 333.316 195.768 323.972 195.768C313.604 195.768 305.188 192.792 298.724 186.84C292.26 180.888 289.028 172.792 289.028 162.552C289.028 152.44 292.388 144.344 299.108 138.264C305.892 132.184 314.468 129.144 324.836 129.144C332.132 129.144 338.436 130.488 343.748 133.176V147.96C337.604 144.44 331.3 142.68 324.836 142.68C318.756 142.68 313.924 144.504 310.34 148.152C306.756 151.736 304.964 156.536 304.964 162.552C304.964 168.632 306.724 173.464 310.244 177.048C313.764 180.632 318.564 182.424 324.644 182.424C327.396 182.424 330.116 182.008 332.804 181.176V168.984H322.34V156.408H347.204ZM374.089 183.192H399.433V195H359.209V130.296H399.049V142.104H374.089V156.792H396.361V168.504H374.089V183.192ZM426.212 142.296V160.536H433.22C439.62 160.536 442.82 157.4 442.82 151.128C442.82 148.376 441.988 146.232 440.324 144.696C438.66 143.096 436.388 142.296 433.508 142.296H426.212ZM444.74 195L430.724 172.536H426.212V195H411.428V130.296H433.796C441.028 130.296 446.82 132.216 451.172 136.056C455.588 139.896 457.796 144.888 457.796 151.032C457.796 160.248 453.86 166.616 445.988 170.136L462.404 195H444.74Z" fill="#2C7DA0"/>
</svg>
